<svg id="Layer_2" data-name="Layer 2" xmlns="http://www.w3.org/2000/svg" viewBox="0 0 711 162"><defs><style>.cls-1{font-size:74px;font-family:Manrope-Medium, Manrope;font-weight:500;letter-spacing:0.01em;}</style></defs><path d="M504.57,55.1v52.5a.75.75,0,0,1-.75.75h-5.51a7.53,7.53,0,0,1-6.3-3.42L467.23,66.62l.85,19.13V107.6a.75.75,0,0,1-.75.75h-7.22a.75.75,0,0,1-.75-.75V55.1a.76.76,0,0,1,.75-.75h5.44a7.5,7.5,0,0,1,6.29,3.42L496.62,96,495.85,77V55.1a.76.76,0,0,1,.75-.75h7.22A.76.76,0,0,1,504.57,55.1Z"/><path d="M578.38,108.35h-7.65a.75.75,0,0,1-.7-1l20.23-52.26a1.14,1.14,0,0,1,1-.72h9.57a1.14,1.14,0,0,1,1,.72l20.23,52.26a.75.75,0,0,1-.7,1h-7.64a.75.75,0,0,1-.7-.48l-16.32-43a.75.75,0,0,0-1.4,0l-16.32,43A.75.75,0,0,1,578.38,108.35Z"/><path d="M675.2,107.14,660,87.76c8.56-1.62,13.57-7.41,13.57-16.28,0-10.18-6.63-17.13-18.36-17.13H634.07A1.13,1.13,0,0,0,633,55.48h0a7.2,7.2,0,0,0,7.21,7.2h14.16c7.1,0,10.49,3.63,10.49,8.88s-3.32,8.94-10.49,8.94H634.07A1.13,1.13,0,0,0,633,81.63v26a.75.75,0,0,0,.75.75h7.22a.75.75,0,0,0,.75-.75V88.22H650l13.17,17.2a7.5,7.5,0,0,0,6,2.93h5.48A.75.75,0,0,0,675.2,107.14Z"/><path d="M555.53,54.35H522a1,1,0,0,0-1,1h0a7.33,7.33,0,0,0,7.33,7.32h27.17a.74.74,0,0,0,.75-.75V55.1A.75.75,0,0,0,555.53,54.35Zm0,45.67h-25a.74.74,0,0,1-.75-.75V85.73a.75.75,0,0,1,.75-.75h23.1a.75.75,0,0,0,.75-.75V77.4a.74.74,0,0,0-.75-.75H522.15A1.12,1.12,0,0,0,521,77.77v29.46a1.12,1.12,0,0,0,1.12,1.12h33.38a.74.74,0,0,0,.75-.75v-6.83A.75.75,0,0,0,555.53,100Z"/><path d="M405.6,40.92,386.78,68.85a2,2,0,0,0,3,2.63l18.52-16.05a.76.76,0,0,1,1.25.57v50.29a.75.75,0,0,1-1.33.48l-56-67a9.6,9.6,0,0,0-7.32-3.4h-2a9.6,9.6,0,0,0-9.59,9.59v70.82a9.59,9.59,0,0,0,9.59,9.59h0a9.57,9.57,0,0,0,8.17-4.57l18.82-27.93a2,2,0,0,0-3-2.62l-18.52,16a.75.75,0,0,1-1.24-.57V56.42a.75.75,0,0,1,1.32-.48l56,67a9.59,9.59,0,0,0,7.32,3.39h1.95a9.59,9.59,0,0,0,9.59-9.59V45.94a9.59,9.59,0,0,0-9.59-9.59h0A9.59,9.59,0,0,0,405.6,40.92Z"/><text class="cls-1" transform="translate(34.6 108)">Built on</text></svg>